<?xml version="1.0" encoding="UTF-8" standalone="no"?>
<svg
   id="Layer_1"
   data-name="Layer 1"
   viewBox="0 0 161.05914 161.05914"
   version="1.1"
   sodipodi:docname="app_icon.svg"
   inkscape:version="1.2.1 (2ed6d7ae0b, 2022-08-22, custom)"
   width="161.05914"
   height="161.05914"
   inkscape:export-filename="../a1f8428d/favicon.png"
   inkscape:export-xdpi="9.536869"
   inkscape:export-ydpi="9.536869"
   xmlns:inkscape="http://www.inkscape.org/namespaces/inkscape"
   xmlns:sodipodi="http://sodipodi.sourceforge.net/DTD/sodipodi-0.dtd"
   xmlns="http://www.w3.org/2000/svg"
   xmlns:svg="http://www.w3.org/2000/svg">
  <sodipodi:namedview
     id="namedview159"
     pagecolor="#ffffff"
     bordercolor="#666666"
     borderopacity="1.0"
     inkscape:showpageshadow="2"
     inkscape:pageopacity="0.0"
     inkscape:pagecheckerboard="0"
     inkscape:deskcolor="#d1d1d1"
     showgrid="false"
     inkscape:zoom="5.1805006"
     inkscape:cx="84.258267"
     inkscape:cy="51.539421"
     inkscape:window-width="3440"
     inkscape:window-height="1403"
     inkscape:window-x="1920"
     inkscape:window-y="0"
     inkscape:window-maximized="1"
     inkscape:current-layer="layer3" />
  <defs
     id="defs150">
    <style
       id="style148">.cls-1{fill:#dd0031;}.cls-2{fill:#c3002f;}.cls-3{fill:#fff;}</style>
  </defs>
  <g
     inkscape:groupmode="layer"
     id="layer3"
     inkscape:label="letter"
     transform="translate(-451.05457,-109.34265)">
    <path
       style="font-variation-settings:normal;opacity:1;fill:#fe502d;fill-opacity:1;stroke:none;stroke-width:4;stroke-linecap:butt;stroke-linejoin:miter;stroke-miterlimit:4;stroke-dasharray:none;stroke-dashoffset:0;stroke-opacity:1;stop-color:#000000;stop-opacity:1"
       d="m 535.66675,209.28433 3.85547,55.10938 h 10.86914 0.0371 61.00195 l -1.52149,-21.76563 h -48.12304 l -0.01,-0.13867 -2.65234,-37.90234 c 5.19842,-0.75046 10.42255,-1.34944 15.67578,-1.7168 l 10.36914,-0.72656 -1.45117,-20.73828 -10.36914,0.72461 c -5.25103,0.36719 -10.47598,0.94879 -15.67774,1.66601 l -3.26562,-46.68164 h 48.125 l -1.52149,-21.76367 h -61.00195 -0.0371 -10.87086"
       id="path976" />
    <path
       id="path378"
       style="font-variation-settings:normal;opacity:1;fill:#fe7a2d;fill-opacity:1;stroke:none;stroke-width:4;stroke-linecap:butt;stroke-linejoin:miter;stroke-miterlimit:4;stroke-dasharray:none;stroke-dashoffset:0;stroke-opacity:1;stop-color:#000000;stop-opacity:1"
       d="M 529.09921,115.35074 451.39413,264.3937 h 24.46289 l 21.49024,-41.22851 3.8125,-1.7207 c 11.15787,-5.03798 22.7049,-9.09381 34.50781,-12.16016 l -1.47266,-21.0625 c -7.43029,1.80118 -14.77627,3.95167 -22.0039,6.4668 l 19.80078,-37.98438 v -0.002 z" />
  </g>
</svg>
